<?xml version="1.0" encoding="UTF-8" standalone="no"?><!DOCTYPE svg PUBLIC "-//W3C//DTD SVG 1.1//EN" "http://www.w3.org/Graphics/SVG/1.1/DTD/svg11.dtd"><svg width="100%" height="100%" viewBox="0 0 24 24" version="1.1" xmlns="http://www.w3.org/2000/svg" xmlns:xlink="http://www.w3.org/1999/xlink" xml:space="preserve" xmlns:serif="http://www.serif.com/" style="fill-rule:evenodd;clip-rule:evenodd;stroke-linejoin:round;stroke-miterlimit:1.41421;"><rect x="-0.342" y="-0.342" width="24.683" height="24.683" style="fill:#f2f2f2;"/><circle cx="4.533" cy="3.063" r="2.125" style="fill-opacity:0.054902;"/><circle cx="11.898" cy="1.542" r="0.604" style="fill-opacity:0.054902;"/><circle cx="9.118" cy="12.08" r="1.845" style="fill-opacity:0.054902;"/><circle cx="14.497" cy="7.238" r="1.375" style="fill-opacity:0.054902;"/><circle cx="2.052" cy="14.109" r="1.375" style="fill-opacity:0.054902;"/><circle cx="21.763" cy="4.165" r="1.375" style="fill-opacity:0.054902;"/><path d="M21.894,12.526c0.196,0.731 -0.238,1.483 -0.969,1.679c-0.731,0.196 -1.483,-0.238 -1.679,-0.969c-0.196,-0.731 0.239,-1.483 0.97,-1.679c0.73,-0.196 1.483,0.238 1.678,0.969Z" style="fill-opacity:0.054902;"/><path d="M23.124,17.116c0.056,0.208 -0.068,0.422 -0.275,0.477c-0.208,0.056 -0.422,-0.067 -0.478,-0.275c-0.056,-0.208 0.068,-0.422 0.276,-0.478c0.208,-0.055 0.422,0.068 0.477,0.276Z" style="fill-opacity:0.054902;"/><path d="M8.388,21.557c0.17,0.634 -0.207,1.287 -0.842,1.457c-0.634,0.17 -1.287,-0.207 -1.457,-0.841c-0.17,-0.635 0.207,-1.288 0.841,-1.458c0.635,-0.17 1.288,0.207 1.458,0.842Z" style="fill-opacity:0.054902;"/><path d="M20.488,19.558c0.127,0.473 -0.154,0.959 -0.627,1.086c-0.473,0.127 -0.959,-0.154 -1.086,-0.627c-0.127,-0.473 0.154,-0.96 0.627,-1.086c0.473,-0.127 0.96,0.154 1.086,0.627Z" style="fill-opacity:0.054902;"/><path d="M14.129,12.95c0.127,0.473 -0.154,0.959 -0.627,1.086c-0.473,0.127 -0.96,-0.154 -1.086,-0.627c-0.127,-0.473 0.154,-0.96 0.627,-1.086c0.473,-0.127 0.959,0.154 1.086,0.627Z" style="fill-opacity:0.054902;"/><path d="M15.903,17.377c0.127,0.473 -0.154,0.96 -0.627,1.086c-0.473,0.127 -0.96,-0.154 -1.086,-0.627c-0.127,-0.472 0.154,-0.959 0.627,-1.086c0.473,-0.127 0.959,0.154 1.086,0.627Z" style="fill-opacity:0.054902;"/></svg>